
<svg xmlns="http://www.w3.org/2000/svg" version="1.1" xmlns:xlink="http://www.w3.org/1999/xlink" preserveAspectRatio="none" x="0px" y="0px" width="120px" height="120px" viewBox="0 0 120 120">
<defs>
<g id="Layer0_0_FILL">
<path fill="#2394E0" stroke="none" d="
M 120 60
Q 120 35.15 102.4 17.6 84.85 0 60 0 35.1 0 17.6 17.6 0 35.15 0 60 0 84.9 17.6 102.4 35.15 120 60 120 84.85 120 102.4 102.4 120 84.9 120 60 Z"/>
</g>

<g id="Layer0_1_FILL">
<path fill="#A1E367" stroke="none" d="
M 11.5 91.05
L 11.75 86
Q 12.75 84.7 13.3 83.8 14.35 82.2 14.35 81.45
L 14.3 78.3 3.7 73.2
Q 6.05 82.9 11.5 91.05
M 83.25 48.35
L 88 48.25 91.15 52.5 92.5 51.5 94.85 64.6 97.05 63.15 97.1 58 103.8 51.05 105.85 57.3 107.55 56.75 108.4 65.15 108.8 65.2 108.8 60.6 111.9 64.25
Q 111.9 64.2 113 62.95 114.05 61.8 114.05 61.25 114.05 59.4 113.05 57.7 112.1 55.95 112.1 55.4 112.1 54.3 112.3 53.7 112.6 52.9 112.7 52.15
L 114.65 52.35
Q 112.45 36.3 102.05 23.8 91.65 11.4 76.5 6.35
L 69.05 8.5 69.05 6.55 67.75 6.55 67.7 8.35 64.8 9.15 64.4 10.5 60.55 7.35 65.8 7.8
Q 65.15 6.95 62.05 5.75 58.9 4.6 57.35 4.6
L 55.4 4.6
Q 54.1 4.6 49.8 7.55 44.35 11.4 43.6 11.75
L 44.3 15.15 48.1 14.35 48.7 17.2 46.25 15.65 45.55 16.95
Q 45.55 17.8 45.7 18.05 45.9 18.5 46 19.1
L 36.5 23.5 36.5 24.75 37.15 24.35 39.05 28.65 33.2 28.65 33.2 35.2
Q 34.6 35.3 35.15 35.6 35.7 35.85 36.5 35.85 38.3 35.85 39.05 34.9 39.7 34.2 40 32.25
L 43.15 29.2 46.35 28 51.6 33.55 49.5 34.6
Q 50.95 36.55 51.6 34.85 52.15 32.45 52.4 31.65
L 48.25 27.3 48.95 26.65 53.75 30.15 56 35.85
Q 56.3 35.7 56.9 35.45 57.35 35.15 57.35 34.6 57.35 33.75 57.2 33.4 56.9 32.7 56.7 32.05
L 58.95 31.45 61.25 36.4 66.45 35.85
Q 66.45 38.5 66.1 39.75 65.5 41.7 63.85 41.7
L 62.55 41.7
Q 60.45 41.7 58.65 41 56.05 39.95 55.3 39.75
L 54.65 42.55 48.2 39.75 48.2 35.2 42.35 35.2
Q 41.45 35.2 40.3 36.2 39.05 37.15 37.15 37.15
L 35.5 37.4 32.6 40.4 32.6 43.65
Q 30.7 44.9 29.2 47.2 27.4 49.8 27.4 52.1
L 27.4 59.95
Q 27.4 60.95 29.8 64.5 32.35 68.45 33.9 68.45
L 36.5 68.45
Q 37.95 68.45 39.1 67.8 40.3 67.1 41.7 67.1
L 42.4 67.1
Q 43.6 67.1 43.9 67.55 43.95 67.65 44.35 69.05
L 46.95 69.05 46.95 74.3
Q 46.95 74.45 48.6 77.65 50.2 80.9 50.2 82.75 50.2 84.55 49.55 86.25 48.9 88 48.9 89.3 48.9 90.75 50.55 95.9 52.15 101.15 52.15 103.6
L 56.05 103.6
Q 58.7 103.6 60.9 101.35 63.05 99.2 63.3 96.55
L 65.2 95.8 64.5 92.55
Q 65 91.8 67.8 89.5 69.9 87.7 69.75 86.7
L 68.55 78.2
Q 72.1 73.45 74 70.55 77.45 65.35 77.55 61.95 76.25 62.05 75.5 62.3 74.9 62.55 73.65 62.55 72.9 62.55 72.65 62 72.5 61.1 72.35 60.6 76.25 59.7 79.5 57.05 83.4 53.9 83.4 50.2 83.4 49.5 82.8 49.3 81.95 49 81.45 47.55
L 80.2 47.55 80.2 48.9 77.55 48.9 75.3 43.15 76.05 42.7 79.65 46.85 81.5 46.3 83.25 48.35 Z"/>
</g>
</defs>

<g transform="matrix( 1, 0, 0, 1, 0,0) ">
<use xlink:href="#Layer0_0_FILL"/>
</g>

<g transform="matrix( 1, 0, 0, 1, 0,0) ">
<use xlink:href="#Layer0_1_FILL"/>
</g>
</svg>
