
<svg xmlns="http://www.w3.org/2000/svg" version="1.1" xmlns:xlink="http://www.w3.org/1999/xlink" preserveAspectRatio="none" x="0px" y="0px" width="80px" height="80px" viewBox="0 0 80 80">
<defs>
<g id="Layer0_0_FILL">
<path fill="#D65151" stroke="none" d="
M 80 40
Q 80 23.45 68.25 11.75 56.55 0 40 0 23.45 0 11.7 11.75 0 23.45 0 40 0 56.6 11.7 68.3 23.45 80 40 80 56.55 80 68.25 68.3 80 56.55 80 40
M 63.2 17.5
Q 72.65 26.95 72.65 40.35 72.65 53.8 63.2 63.25 53.75 72.7 40.3 72.7 26.9 72.7 17.45 63.25 8 53.75 8 40.35 8 26.95 17.45 17.5 26.9 8 40.3 8 53.7 8 63.2 17.5
M 39.8 55
Q 38.25 55 37.1 56.15 36 57.25 36 58.85 36 60.45 37.1 61.55 38.25 62.7 39.8 62.7 41.4 62.7 42.5 61.55 43.65 60.45 43.65 58.85 43.65 57.3 42.5 56.15 41.4 55 39.8 55
M 42.5 48.9
Q 43.65 47.75 43.65 46.2
L 43.65 21.85
Q 43.65 20.3 42.5 19.15 41.4 18 39.8 18 38.25 18 37.1 19.15 36 20.25 36 21.85
L 36 46.2
Q 36 47.8 37.1 48.9 38.25 50 39.8 50 41.4 50 42.5 48.9 Z"/>
</g>
</defs>

<g transform="matrix( 1, 0, 0, 1, 0,0) ">
<use xlink:href="#Layer0_0_FILL"/>
</g>
</svg>
