
<svg xmlns="http://www.w3.org/2000/svg" version="1.1" xmlns:xlink="http://www.w3.org/1999/xlink" preserveAspectRatio="none" x="0px" y="0px" width="80px" height="80px" viewBox="0 0 80 80">
<defs>
<g id="Layer0_0_FILL">
<path fill="#51D651" stroke="none" d="
M 80 40
Q 80 23.45 68.25 11.75 56.55 0 40 0 23.45 0 11.7 11.75 0 23.45 0 40 0 56.6 11.7 68.3 23.45 80 40 80 56.55 80 68.25 68.3 80 56.55 80 40
M 63.2 17.5
Q 72.65 26.95 72.65 40.35 72.65 53.8 63.2 63.25 53.75 72.7 40.3 72.7 26.9 72.7 17.45 63.25 8 53.75 8 40.35 8 26.95 17.45 17.5 26.9 8 40.3 8 53.7 8 63.2 17.5
M 60.5 25.4
Q 59.4 24.3 57.8 24.3 56.25 24.3 55.1 25.4
L 34.05 46.45 24.85 37.3
Q 23.75 36.2 22.15 36.2 20.55 36.2 19.45 37.3 18.35 38.4 18.35 40 18.35 41.6 19.45 42.7
L 31.35 54.55
Q 32.45 55.65 34.05 55.7 35.6 55.65 36.75 54.55
L 60.5 30.8
Q 61.6 29.7 61.65 28.1 61.6 26.5 60.5 25.4 Z"/>
</g>
</defs>

<g transform="matrix( 1, 0, 0, 1, 0,0) ">
<use xlink:href="#Layer0_0_FILL"/>
</g>
</svg>
