
<svg xmlns="http://www.w3.org/2000/svg" version="1.1" xmlns:xlink="http://www.w3.org/1999/xlink" preserveAspectRatio="none" x="0px" y="0px" width="564px" height="180px" viewBox="0 0 564 180">
<defs>
<g id="Layer1_0_FILL">
<path fill="#000000" stroke="none" d="
M 176.3 175.5
Q 184.25 171.5 192.6 171.5 202.25 171.5 208.3 175.5 214.25 179.5 217 186.15 219.8 192.75 219.8 201
L 219.8 258.35
Q 219.8 259.85 220.8 261.05 221.85 262.15 223.6 262.15 225.1 262.15 226.2 261.05 227.3 259.85 227.3 258.35
L 227.3 200.2
Q 227.3 190.15 223.9 182 220.35 173.85 212.85 169 205.35 164.25 193.35 164.25 186.3 164.25 179.15 167.05 172.1 169.85 166.2 174.65 161.2314453125 178.769140625 157.85 183.9
L 157.85 171.15
Q 157.85 169.65 156.8 168.45 155.7 167.35 154.05 167.35 152.55 167.35 151.35 168.45 150.2 169.65 150.2 171.15
L 150.2 258.35
Q 150.2 259.85 151.25 261.05 152.35 262.15 154.05 262.15 155.5 262.15 156.7 261.05 157.85 259.85 157.85 258.35
L 157.85 201
Q 157.85 192.75 163 186.15 168.3 179.5 176.3 175.5
M 341.3 189.7
Q 335.45 178.75 325.65 172.45 315.7 166.2 303 166.2 296.75 166.2 290.85 167.7 285 169.3 279.8 172.45 274.7 175.7 270.7 180.8 268.4125 183.773828125 266.55 187.35
L 266.55 170.05
Q 266.55 168.45 265.5 167.35 264.4 166.2 262.75 166.2 261.05 166.2 259.95 167.35 258.9 168.45 258.9 170.05
L 258.9 292.55 107.95 292.55
Q 98.4 292.5 91.55 285.7 84.75 278.9 84.8 269.35
L 84.8 263.1
Q 99.2146484375 262.1708984375 108.3 254.1 118.7 244.9 118.7 226.45
L 118.7 171.15
Q 118.7 169.65 117.7 168.45 116.65 167.35 114.9 167.35 113.2 167.35 112.1 168.45 111.1 169.65 111.1 171.15
L 111.1 226.45
Q 111.1 240.9 103 248.5 96.113671875 254.95859375 84.8 255.9 82.88828125 256.05 80.85 256.05 78.9453125 256.05 77.15 255.9 65.89296875 255.01171875 58.95 248.5 50.9 240.9 50.9 226.45
L 50.9 171.15
Q 50.9 169.65 49.85 168.45 48.75 167.35 47.1 167.35 45.6 167.35 44.4 168.45 43.25 169.65 43.25 171.15
L 43.25 226.45
Q 43.25 244.9 53.65 254.1 62.797265625 262.2259765625 77.15 263.1
L 77.15 269.35
Q 77.15 282.1 86.15 291.1 95.2 300.2 107.95 300.2
L 262.85 300.2
Q 264.384375 300.165625 265.45 299.1 266.5154296875 298.0345703125 266.55 296.5
L 266.55 241.55
Q 268.672265625 245.05234375 271.15 248.05 275.25 253.05 280.15 256.4 285.2 259.65 290.95 261.5 296.75 263.25 303 263.25 315.5 263.25 325.55 256.95 335.45 250.55 341.3 239.5 347.05 228.55 347.05 214.65 347.05 200.55 341.3 189.7
M 339.45 214.65
Q 339.45 226.6 334.6 236 329.8 245.45 321.55 250.75 313.3 256.05 302.6 256.05 291.75 256.05 283.5 250.75 275.25 245.45 270.5 236 265.8 226.6 265.8 214.65 265.8 202.5 270.5 193.3 275.25 184.05 283.5 178.75 291.75 173.45 302.6 173.45 313.3 173.45 321.55 178.75 329.8 184.05 334.6 193.4 339.45 202.7 339.45 214.65
M 374.85 122.7
Q 373.65 123.8 373.65 125.3
L 373.65 258.35
Q 373.65 259.85 374.65 261.05 375.8 262.15 377.45 262.15 379.05 262.15 380.15 261.05 381.25 259.85 381.25 258.35
L 381.25 125.3
Q 381.25 123.8 380.25 122.7 379.2 121.5 377.45 121.5 375.95 121.5 374.85 122.7
M 560.8 164.25
Q 547.7 164.25 537.35 170.75 527.05 177.25 520.9 188.5 514.9 199.8 514.9 214.1 514.9 228.3 520.9 239.6 527.05 250.9 537.35 257.5 547.7 264 560.8 264 566.55 264 572.65 262.45 578.9 260.85 584.45 257.35 590.1 253.8 594.5 248.05 597.293359375 244.421875 599.2 239.75
L 599.2 252.85
Q 599.2 270.7 588.8 281.8 578.5 292.95 560.45 292.95 555.35 292.95 551.15 292.3 547 291.55 544 290.65 541.05 289.7 539.35 289.15 535.2 287.4 533.5 285.35 531.95 283.2 530 283.2 528.5 283.2 527.7 284.25 526.85 285.15 526.85 286.65 526.85 290.05 531.95 293.15 537.05 296.2 544.75 298.15 552.45 300.2 560.05 300.2 573.9 300.2 584.35 294.45 594.85 288.8 600.8 278.1 606.8 267.45 606.8 252.85
L 606.8 171.15
Q 606.8 169.65 605.7 168.45 604.7 167.35 603 167.35 601.25 167.35 600.25 168.45 599.2 169.65 599.2 171.15
L 599.2 187.25
Q 598.89453125 186.6384765625 598.55 186 595.4 180.25 589.75 175.3 584.2 170.4 576.75 167.35 569.35 164.25 560.8 164.25
M 541.3 177.1
Q 550.15 171.5 561.15 171.5 572.2 171.5 580.95 176.8 589.65 182.2 594.85 191.75 599.95 201.4 599.95 214.1 599.95 226.8 594.85 236.45 589.65 246 580.95 251.4 572.2 256.85 561.15 256.85 550.15 256.85 541.3 251.2 532.5 245.65 527.5 235.9 522.4 226.25 522.4 214.1 522.4 201.75 527.5 192.1 532.5 182.55 541.3 177.1
M 489.2 171.15
Q 489.2 169.65 488.2 168.45 487.15 167.35 485.4 167.35 483.7 167.35 482.6 168.45 481.6 169.65 481.6 171.15
L 481.6 226.45
Q 481.6 240.9 473.5 248.5 465.45 256.05 451.35 256.05 437.5 256.05 429.45 248.5 421.4 240.9 421.4 226.45
L 421.4 171.15
Q 421.4 169.65 420.35 168.45 419.25 167.35 417.6 167.35 416.1 167.35 414.9 168.45 413.75 169.65 413.75 171.15
L 413.75 226.45
Q 413.75 244.9 424.15 254.1 434.45 263.25 451.35 263.25 468.5 263.25 478.8 254.1 489.2 244.9 489.2 226.45
L 489.2 171.15 Z"/>
</g>

<g id="Layer1_0_MEMBER_0_FILL">
<path fill="#000000" stroke="none" d="
M -14 -78.9
Q -15.15 -77.7 -15.15 -76.2
L -15.15 -25.85 -7.5 -25.85 -7.5 -76.2
Q -7.5 -77.7 -8.55 -78.9 -9.65 -80 -11.3 -80 -12.8 -80 -14 -78.9
M 8.6 -78.9
Q 7.45 -77.7 7.45 -76.2
L 7.45 -25.85 15.1 -25.85 15.1 -76.2
Q 15.1 -77.7 14.05 -78.9 12.95 -80 11.3 -80 9.8 -80 8.6 -78.9 Z"/>
</g>

<g id="Layer1_0_MEMBER_1_FILL">
<path fill="#000000" stroke="none" d="
M -37.7 -47.95
L -37.7 -40.3 -20.65 -40.3 -20.65 -47.95 -37.7 -47.95 Z"/>
</g>

<g id="Layer1_0_MEMBER_2_FILL">
<path fill="#000000" stroke="none" d="
M -37.7 -47.95
L -37.7 -40.3 -20.65 -40.3 -20.65 -47.95 -37.7 -47.95 Z"/>
</g>

<g id="Layer1_0_MEMBER_3_MEMBER_0_FILL">
<path fill="#000000" stroke="none" d="
M 11.75 93.2
L 12.05 88.05
Q 13.05 86.7 13.6 85.8 14.7 84.15 14.7 83.4
L 14.65 80.15 3.8 74.95
Q 6.2 84.85 11.75 93.2
M 83.4 48.7
L 82.1 48.7 82.1 50.05 79.4 50.05 77.1 44.15 77.85 43.7 81.55 47.95 83.45 47.4 85.25 49.5 90.1 49.4 93.3 53.75 94.7 52.7 97.1 66.15 99.35 64.65 99.4 59.4 106.25 52.25 108.35 58.65 110.1 58.1 110.95 66.7 111.4 66.75 111.4 62.05 114.55 65.75
Q 114.55 65.7 115.7 64.45 116.75 63.25 116.75 62.7 116.75 60.8 115.75 59.05 114.75 57.3 114.75 56.7 114.75 55.6 114.95 54.95 115.25 54.15 115.4 53.4
L 117.35 53.6
Q 115.1 37.15 104.45 24.35 93.85 11.65 78.3 6.5
L 70.7 8.7 70.7 6.7 69.35 6.7 69.3 8.55 66.35 9.35 65.95 10.75 62 7.5 67.35 8
Q 66.7 7.1 63.5 5.9 60.3 4.7 58.7 4.7
L 56.7 4.7
Q 55.4 4.7 51 7.75 45.4 11.65 44.65 12.05
L 45.35 15.5 49.25 14.7 49.85 17.6 47.35 16 46.65 17.35
Q 46.65 18.2 46.8 18.5 47 18.95 47.1 19.55
L 37.35 24.05 37.35 25.35 38.05 24.95 40 29.35 34 29.35 34 36.05
Q 35.4 36.15 36 36.45 36.55 36.7 37.35 36.7 39.2 36.7 40 35.75 40.65 35 40.95 33
L 44.15 29.9 47.45 28.65 52.85 34.35 50.7 35.4
Q 52.15 37.4 52.85 35.7 53.4 33.2 53.65 32.4
L 49.4 27.95 50.1 27.3 55.05 30.85 57.35 36.7
Q 57.65 36.55 58.25 36.3 58.7 36 58.7 35.4 58.7 34.55 58.55 34.2 58.25 33.5 58.05 32.8
L 60.35 32.2 62.7 37.25 68.05 36.7
Q 68.05 39.4 67.65 40.7 67.05 42.7 65.35 42.7
L 64.05 42.7
Q 61.9 42.7 60.05 41.95 57.4 40.9 56.6 40.7
L 55.95 43.55 49.35 40.7 49.35 36.05 43.35 36.05
Q 42.45 36.05 41.25 37.05 40 38.05 38.05 38.05
L 36.35 38.3 33.35 41.35 33.35 44.7
Q 31.45 45.95 29.9 48.3 28.05 51 28.05 53.35
L 28.05 61.35
Q 28.05 62.4 30.5 66.05 33.1 70.05 34.7 70.05
L 37.35 70.05
Q 38.85 70.05 40.05 69.4 41.25 68.7 42.7 68.7
L 43.4 68.7
Q 44.65 68.7 44.95 69.15 45 69.25 45.4 70.7
L 48.05 70.7 48.05 76.05
Q 48.05 76.2 49.75 79.5 51.4 82.8 51.4 84.7 51.4 86.55 50.75 88.3 50.05 90.1 50.05 91.4 50.05 92.9 51.75 98.2 53.4 103.55 53.4 106.05
L 57.4 106.05
Q 60.1 106.05 62.35 103.75 64.55 101.55 64.8 98.85
L 66.75 98.05 66.05 94.75
Q 66.55 94 69.4 91.65 71.55 89.8 71.4 88.75
L 70.2 80.05
Q 73.8 75.2 75.75 72.25 79.3 66.9 79.4 63.4 78.05 63.5 77.3 63.8 76.7 64.05 75.4 64.05 74.65 64.05 74.35 63.45 74.2 62.55 74.05 62.05 78.05 61.1 81.4 58.4 85.4 55.2 85.4 51.4 85.4 50.7 84.75 50.45 83.9 50.15 83.4 48.7 Z"/>
</g>
</defs>

<g transform="matrix( 1, 0, 0, 1, -43,-120.85) ">
<use xlink:href="#Layer1_0_FILL"/>
</g>

<g transform="matrix( 1, 0, 0, 1, 37.95,94.45) ">
<use xlink:href="#Layer1_0_MEMBER_0_FILL"/>
</g>

<g transform="matrix( 1, 0, 0, 1, 37.95,94.45) ">
<use xlink:href="#Layer1_0_MEMBER_1_FILL"/>
</g>

<g transform="matrix( 1, 0, 0, 1, 96.35,94.45) ">
<use xlink:href="#Layer1_0_MEMBER_2_FILL"/>
</g>

<g transform="matrix( 0.631256103515625, 0, 0, 0.6947479248046875, 479.4,50.65) ">
<use xlink:href="#Layer1_0_MEMBER_3_MEMBER_0_FILL"/>
</g>
</svg>
